<svg width="76" height="76" viewBox="0 0 76 76" fill="none" xmlns="http://www.w3.org/2000/svg">
<path fill-rule="evenodd" clip-rule="evenodd" d="M28.5 11.9516C27.4705 11.9516 26.4832 12.3605 25.7552 13.0885C25.0273 13.8165 24.6183 14.8038 24.6183 15.8333V19.715H51.3817V15.8333C51.3817 14.8038 50.9728 13.8165 50.2448 13.0885C49.5168 12.3605 48.5295 11.9516 47.5 11.9516H28.5ZM52.3182 24.6182H23.6819L19.8001 32.3817H56.1999L52.3182 24.6182ZM62.6183 32.7307C64.0265 33.14 65.323 33.8992 66.3786 34.9547C68.0261 36.6022 68.9516 38.8367 68.9516 41.1666V60.1666C68.9516 62.4965 68.0261 64.731 66.3786 66.3785C64.7311 68.026 62.4966 68.9516 60.1667 68.9516H15.8333C13.5034 68.9516 11.2689 68.026 9.62145 66.3785C7.97395 64.731 7.0484 62.4965 7.0484 60.1666V41.1666C7.0484 38.8367 7.97395 36.6022 9.62145 34.9547C10.677 33.8992 11.9735 33.14 13.3817 32.7307V28.5C13.3817 26.17 14.3073 23.9356 15.9548 22.2881C17.0103 21.2325 18.3069 20.4733 19.7151 20.064V15.8333C19.7151 13.5034 20.6406 11.2689 22.2881 9.62139C23.9356 7.97389 26.1701 7.04834 28.5 7.04834H47.5C49.8299 7.04834 52.0644 7.97389 53.7119 9.62139C55.3594 11.2689 56.285 13.5034 56.285 15.8333V20.064C57.6932 20.4733 58.9897 21.2325 60.0452 22.2881C61.6927 23.9356 62.6183 26.17 62.6183 28.5V32.7307ZM14.2459 32.5263L19.7151 21.5879L14.2459 32.5263ZM15.8069 37.285C14.7869 37.2919 13.8103 37.7001 13.0886 38.4218C12.3606 39.1498 11.9516 40.1371 11.9516 41.1666V60.1666C11.9516 61.1961 12.3606 62.1834 13.0886 62.9114C13.8165 63.6394 14.8039 64.0483 15.8333 64.0483H60.1667C61.1962 64.0483 62.1835 63.6394 62.9115 62.9114C63.6394 62.1834 64.0484 61.1961 64.0484 60.1666V41.1666C64.0484 40.1371 63.6394 39.1498 62.9115 38.4218C62.1898 37.7001 61.2131 37.2919 60.1932 37.285C60.1727 37.2852 60.1522 37.2852 60.1318 37.2849H15.8682" fill="#2563EB"/>
</svg>
