<svg width="176" height="123" viewBox="0 0 176 123" fill="none" xmlns="http://www.w3.org/2000/svg">
<path d="M172.593 76.0356L138.775 42.218C137.253 40.6962 135.262 39.9364 133.268 39.938C131.413 39.9444 129.431 40.7044 127.903 42.2228L94.0905 76.0356C92.5704 77.5631 91.8106 79.5457 91.8106 81.3983C91.8106 83.3906 92.5705 85.3829 94.0906 86.9024L127.908 120.72C129.431 122.382 131.413 123 133.412 123C135.405 123 137.397 122.24 138.916 120.72L172.734 86.9024C174.254 85.3824 175.014 83.3906 175.014 81.3983C174.868 79.5457 174.25 77.5631 172.593 76.0356ZM158.519 80.8945L142.919 94.545C141.165 96.0962 138.608 94.7047 138.608 92.5901V84.1446H128.066L128.066 91.9449C128.066 94.8051 125.872 97.1451 122.866 97.1451C119.859 97.1451 117.665 94.8051 117.665 91.9449V78.9444C117.665 76.0843 120.005 73.7442 122.866 73.7442H138.32V65.2939C138.32 63.0432 140.983 61.8829 142.631 63.3389L158.232 76.9895C159.088 77.4819 159.267 78.1969 159.267 78.9444C159.267 79.6919 159.088 80.407 158.519 80.8945Z" fill="#2563EB"/>
<path opacity="0.4" fill-rule="evenodd" clip-rule="evenodd" d="M24.3155 24.3423C24.3155 19.8542 27.9374 16.2282 32.4206 16.2282C36.9038 16.2282 40.5258 19.8542 40.5258 24.3423V26.3202C40.5258 33.3439 39.9179 40.3424 38.7274 47.2394L17.3273 53.6799C7.04388 56.7481 0 66.2315 0 76.9827V95.2141C0 105.357 8.22166 113.598 18.3632 113.598C24.9512 113.598 31.0275 110.073 34.2949 104.342L37.8156 98.1808C44.629 86.2632 49.6187 73.4074 52.6075 60.0191L76.5177 52.8432L73.3516 62.3519C72.5411 64.8115 72.9464 67.55 74.4661 69.6546C76.0111 71.7846 78.4427 72.7988 81.0515 72.7988H93.0236L105.368 60.4547C105.377 59.3492 105.477 58.04 105.646 56.5706H92.2974L96.8566 43.1316C97.7937 40.2663 97.0845 37.0967 94.7543 34.916C92.8546 32.7354 89.7139 31.924 86.8264 32.7861L55.8242 42.1173C56.4321 36.8685 56.7361 31.5943 56.7361 26.3202V24.3423C56.7361 10.8983 45.8448 0 32.4206 0C18.9914 0 8.10515 10.8983 8.10515 24.3423V32.4565C8.10515 36.9446 11.7347 40.5706 16.2103 40.5706C20.6859 40.5706 24.3155 36.9446 24.3155 32.4565V24.3423ZM88.495 85.1982C88.8369 85.8089 89.2675 86.3833 89.7869 86.9024L97.2618 94.3773V97.3694H47.4911C49.5681 93.3884 51.4677 89.3313 53.1647 85.1982H88.495ZM21.9878 68.9953L34.3962 65.4961C31.7621 74.0667 28.1907 82.3075 23.7481 90.1174L20.2325 96.279C19.8475 96.9637 19.1358 97.3694 18.3632 97.3694C17.1753 97.3694 16.2103 96.4058 16.2103 95.2141V76.9827C16.2103 73.4074 18.5583 70.2378 21.9878 68.9953Z" fill="#93C5FD"/>
</svg>
